# xmcd
#
# Track frame offsets:
#	150
#	17995
#	43392
#	60293
#	78646
#	103401
#	123329
#	144688
#	168385
#	185233
#	205056
#	223336
#	245166
#	262122
#	286280
#	302244
#
# Disc length: 4385 seconds
#
# Revision: 0
# Processed by: cddbd v1.5.2PL0 Copyright (c) Steve Scherf et al.
# Submitted via: EasyCDDAExtractor 12.1.0.1
#
DISCID=08111f10
DTITLE=Various Artist -  Love 2
DYEAR=2002
DGENRE=Pop
TTITLE0=김현철 - Loving You
TTITLE1=S.E.S - 감싸안으며
TTITLE2=Shap# - 내 입술 따뜻한 커피처럼
TTITLE3=캔 - 내생에 봄날은
TTITLE4=포지션 - I Love You
TTITLE5=장혜진 - 내게로
TTITLE6=Saint - 너하나 없는데
TTITLE7=정희남 - 마지막 겨울
TTITLE8=빛과 소금 - 삼푸의 요정
TTITLE9=최진영 - 너를 잊겠다는 생각은
TTITLE10=임재범 - 아직도 사랑할 뿐인데
TTITLE11=김장훈 - 가난한 날이 노래가 되어
TTITLE12=이소라 - 청혼
TTITLE13=푸른하늘 - 꿈에서 본 거리
TTITLE14=이광조 - 오 그대는 아름다운 여인
TTITLE15=봄여름가을겨울 - 나의 아름다운 노래가
EXTD=
EXTT0=
EXTT1=
EXTT2=
EXTT3=
EXTT4=
EXTT5=
EXTT6=
EXTT7=
EXTT8=
EXTT9=
EXTT10=
EXTT11=
EXTT12=
EXTT13=
EXTT14=
EXTT15=
PLAYORDER=
